<mxfile host="app.diagrams.net" modified="2022-11-23T17:51:46.890Z" agent="5.0 (Windows NT 10.0; Win64; x64) AppleWebKit/537.36 (KHTML, like Gecko) Chrome/107.0.0.0 Safari/537.36" etag="deZL7B7wSH5OIhh1p73L" version="20.5.3" type="github">
  <diagram id="mCyr1kptdM3YggUfpTlr" name="Page-1">
    <mxGraphModel dx="1128" dy="1686" grid="1" gridSize="10" guides="1" tooltips="1" connect="1" arrows="1" fold="1" page="1" pageScale="1" pageWidth="850" pageHeight="1100" math="0" shadow="0">
      <root>
        <mxCell id="0" />
        <mxCell id="1" parent="0" />
        <mxCell id="F_9ewS4ifNzQotgIA7lL-1" value="User" style="swimlane;fontStyle=0;childLayout=stackLayout;horizontal=1;startSize=26;fillColor=none;horizontalStack=0;resizeParent=1;resizeParentMax=0;resizeLast=0;collapsible=1;marginBottom=0;" parent="1" vertex="1">
          <mxGeometry x="140" y="-510" width="140" height="140" as="geometry" />
        </mxCell>
        <mxCell id="F_9ewS4ifNzQotgIA7lL-3" value="Name&#xa;&#xa;Surname &#xa;&#xa;E-mail&#xa;&#xa;Phone number" style="text;strokeColor=none;fillColor=none;align=left;verticalAlign=top;spacingLeft=4;spacingRight=4;overflow=hidden;rotatable=0;points=[[0,0.5],[1,0.5]];portConstraint=eastwest;" parent="F_9ewS4ifNzQotgIA7lL-1" vertex="1">
          <mxGeometry y="26" width="140" height="114" as="geometry" />
        </mxCell>
        <mxCell id="F_9ewS4ifNzQotgIA7lL-5" value="Painter" style="swimlane;fontStyle=0;childLayout=stackLayout;horizontal=1;startSize=26;fillColor=none;horizontalStack=0;resizeParent=1;resizeParentMax=0;resizeLast=0;collapsible=1;marginBottom=0;" parent="1" vertex="1">
          <mxGeometry x="140" y="-330" width="140" height="110" as="geometry" />
        </mxCell>
        <mxCell id="F_9ewS4ifNzQotgIA7lL-6" value="Style" style="text;strokeColor=none;fillColor=none;align=left;verticalAlign=top;spacingLeft=4;spacingRight=4;overflow=hidden;rotatable=0;points=[[0,0.5],[1,0.5]];portConstraint=eastwest;" parent="F_9ewS4ifNzQotgIA7lL-5" vertex="1">
          <mxGeometry y="26" width="140" height="26" as="geometry" />
        </mxCell>
        <mxCell id="F_9ewS4ifNzQotgIA7lL-7" value="Amount of paintings&#xa;&#xa;Expirience" style="text;strokeColor=none;fillColor=none;align=left;verticalAlign=top;spacingLeft=4;spacingRight=4;overflow=hidden;rotatable=0;points=[[0,0.5],[1,0.5]];portConstraint=eastwest;" parent="F_9ewS4ifNzQotgIA7lL-5" vertex="1">
          <mxGeometry y="52" width="140" height="58" as="geometry" />
        </mxCell>
        <mxCell id="F_9ewS4ifNzQotgIA7lL-8" value="" style="endArrow=block;endFill=0;endSize=12;html=1;rounded=0;exitX=0.5;exitY=0;exitDx=0;exitDy=0;" parent="1" source="F_9ewS4ifNzQotgIA7lL-5" edge="1">
          <mxGeometry width="160" relative="1" as="geometry">
            <mxPoint x="56" y="-450" as="sourcePoint" />
            <mxPoint x="210" y="-370" as="targetPoint" />
          </mxGeometry>
        </mxCell>
        <mxCell id="F_9ewS4ifNzQotgIA7lL-11" value="Basket" style="swimlane;fontStyle=0;childLayout=stackLayout;horizontal=1;startSize=26;fillColor=none;horizontalStack=0;resizeParent=1;resizeParentMax=0;resizeLast=0;collapsible=1;marginBottom=0;" parent="1" vertex="1">
          <mxGeometry x="165" y="-720" width="140" height="80" as="geometry" />
        </mxCell>
        <mxCell id="F_9ewS4ifNzQotgIA7lL-13" value="Amount of product&#xa;&#xa;Date of creation" style="text;strokeColor=none;fillColor=none;align=left;verticalAlign=top;spacingLeft=4;spacingRight=4;overflow=hidden;rotatable=0;points=[[0,0.5],[1,0.5]];portConstraint=eastwest;" parent="F_9ewS4ifNzQotgIA7lL-11" vertex="1">
          <mxGeometry y="26" width="140" height="54" as="geometry" />
        </mxCell>
        <mxCell id="F_9ewS4ifNzQotgIA7lL-16" value="Order" style="swimlane;fontStyle=0;childLayout=stackLayout;horizontal=1;startSize=26;fillColor=none;horizontalStack=0;resizeParent=1;resizeParentMax=0;resizeLast=0;collapsible=1;marginBottom=0;" parent="1" vertex="1">
          <mxGeometry x="410" y="-730" width="140" height="170" as="geometry" />
        </mxCell>
        <mxCell id="F_9ewS4ifNzQotgIA7lL-17" value="General price" style="text;strokeColor=none;fillColor=none;align=left;verticalAlign=top;spacingLeft=4;spacingRight=4;overflow=hidden;rotatable=0;points=[[0,0.5],[1,0.5]];portConstraint=eastwest;" parent="F_9ewS4ifNzQotgIA7lL-16" vertex="1">
          <mxGeometry y="26" width="140" height="26" as="geometry" />
        </mxCell>
        <mxCell id="F_9ewS4ifNzQotgIA7lL-18" value="Adress of delivery &#xa;&#xa;SNP&#xa;&#xa;E-mail&#xa;&#xa;Phone number" style="text;strokeColor=none;fillColor=none;align=left;verticalAlign=top;spacingLeft=4;spacingRight=4;overflow=hidden;rotatable=0;points=[[0,0.5],[1,0.5]];portConstraint=eastwest;" parent="F_9ewS4ifNzQotgIA7lL-16" vertex="1">
          <mxGeometry y="52" width="140" height="118" as="geometry" />
        </mxCell>
        <mxCell id="F_9ewS4ifNzQotgIA7lL-20" value="Product" style="swimlane;fontStyle=0;childLayout=stackLayout;horizontal=1;startSize=26;fillColor=none;horizontalStack=0;resizeParent=1;resizeParentMax=0;resizeLast=0;collapsible=1;marginBottom=0;" parent="1" vertex="1">
          <mxGeometry x="345" y="-512" width="140" height="170" as="geometry" />
        </mxCell>
        <mxCell id="F_9ewS4ifNzQotgIA7lL-21" value="Name" style="text;strokeColor=none;fillColor=none;align=left;verticalAlign=top;spacingLeft=4;spacingRight=4;overflow=hidden;rotatable=0;points=[[0,0.5],[1,0.5]];portConstraint=eastwest;" parent="F_9ewS4ifNzQotgIA7lL-20" vertex="1">
          <mxGeometry y="26" width="140" height="26" as="geometry" />
        </mxCell>
        <mxCell id="F_9ewS4ifNzQotgIA7lL-22" value="Price&#xa;&#xa;Availability&#xa;&#xa;Description&#xa;&#xa;Amount" style="text;strokeColor=none;fillColor=none;align=left;verticalAlign=top;spacingLeft=4;spacingRight=4;overflow=hidden;rotatable=0;points=[[0,0.5],[1,0.5]];portConstraint=eastwest;" parent="F_9ewS4ifNzQotgIA7lL-20" vertex="1">
          <mxGeometry y="52" width="140" height="118" as="geometry" />
        </mxCell>
        <mxCell id="F_9ewS4ifNzQotgIA7lL-29" value="" style="endArrow=none;html=1;endSize=12;startArrow=diamondThin;startSize=18;startFill=0;exitX=0.5;exitY=0;exitDx=0;exitDy=0;entryX=0.548;entryY=1.018;entryDx=0;entryDy=0;entryPerimeter=0;" parent="1" source="F_9ewS4ifNzQotgIA7lL-20" target="F_9ewS4ifNzQotgIA7lL-13" edge="1">
          <mxGeometry relative="1" as="geometry">
            <mxPoint x="490" y="-570" as="sourcePoint" />
            <mxPoint x="240" y="-620" as="targetPoint" />
          </mxGeometry>
        </mxCell>
        <mxCell id="F_9ewS4ifNzQotgIA7lL-30" value="*" style="edgeLabel;resizable=0;html=1;align=right;verticalAlign=top;" parent="F_9ewS4ifNzQotgIA7lL-29" connectable="0" vertex="1">
          <mxGeometry x="1" relative="1" as="geometry">
            <mxPoint x="30" y="-4" as="offset" />
          </mxGeometry>
        </mxCell>
        <mxCell id="F_9ewS4ifNzQotgIA7lL-31" value="1" style="text;html=1;align=center;verticalAlign=middle;resizable=0;points=[];autosize=1;strokeColor=none;fillColor=none;" parent="1" vertex="1">
          <mxGeometry x="377" y="-720" width="30" height="30" as="geometry" />
        </mxCell>
        <mxCell id="F_9ewS4ifNzQotgIA7lL-33" value="" style="endArrow=none;html=1;rounded=0;endFill=0;strokeWidth=1;entryX=0.5;entryY=0;entryDx=0;entryDy=0;startArrow=open;startFill=0;endSize=14;exitX=0.361;exitY=1.085;exitDx=0;exitDy=0;exitPerimeter=0;" parent="1" source="F_9ewS4ifNzQotgIA7lL-13" target="F_9ewS4ifNzQotgIA7lL-1" edge="1">
          <mxGeometry width="50" height="50" relative="1" as="geometry">
            <mxPoint x="398.31999999999994" y="-449.53999999999996" as="sourcePoint" />
            <mxPoint x="291.82000000000016" y="-450.05999999999995" as="targetPoint" />
            <Array as="points" />
          </mxGeometry>
        </mxCell>
        <mxCell id="F_9ewS4ifNzQotgIA7lL-281" value="form" style="edgeLabel;html=1;align=center;verticalAlign=middle;resizable=0;points=[];" parent="F_9ewS4ifNzQotgIA7lL-33" vertex="1" connectable="0">
          <mxGeometry x="-0.2577" y="-2" relative="1" as="geometry">
            <mxPoint as="offset" />
          </mxGeometry>
        </mxCell>
        <mxCell id="F_9ewS4ifNzQotgIA7lL-34" value="1" style="text;html=1;align=center;verticalAlign=middle;resizable=0;points=[];autosize=1;strokeColor=none;fillColor=none;" parent="1" vertex="1">
          <mxGeometry x="184" y="-535" width="30" height="30" as="geometry" />
        </mxCell>
        <mxCell id="F_9ewS4ifNzQotgIA7lL-38" value="" style="endArrow=none;html=1;rounded=0;endFill=0;strokeWidth=1;entryX=1.007;entryY=0.249;entryDx=0;entryDy=0;startArrow=open;startFill=0;endSize=14;exitX=0;exitY=0.5;exitDx=0;exitDy=0;entryPerimeter=0;" parent="1" source="F_9ewS4ifNzQotgIA7lL-17" target="F_9ewS4ifNzQotgIA7lL-13" edge="1">
          <mxGeometry width="50" height="50" relative="1" as="geometry">
            <mxPoint x="400.70000000000005" y="-626.258" as="sourcePoint" />
            <mxPoint x="255" y="-500" as="targetPoint" />
            <Array as="points" />
          </mxGeometry>
        </mxCell>
        <mxCell id="F_9ewS4ifNzQotgIA7lL-285" value="form" style="edgeLabel;html=1;align=center;verticalAlign=middle;resizable=0;points=[];" parent="1" vertex="1" connectable="0">
          <mxGeometry x="359.99653057718183" y="-684.9967042496505" as="geometry" />
        </mxCell>
        <mxCell id="F_9ewS4ifNzQotgIA7lL-286" value="*" style="edgeLabel;resizable=0;html=1;align=right;verticalAlign=top;" parent="1" connectable="0" vertex="1">
          <mxGeometry x="407.00021012973957" y="-549.996604741396" as="geometry" />
        </mxCell>
        <mxCell id="F_9ewS4ifNzQotgIA7lL-290" value="1" style="text;html=1;align=center;verticalAlign=middle;resizable=0;points=[];autosize=1;strokeColor=none;fillColor=none;" parent="1" vertex="1">
          <mxGeometry x="189" y="-624" width="30" height="30" as="geometry" />
        </mxCell>
        <mxCell id="F_9ewS4ifNzQotgIA7lL-294" value="1" style="text;html=1;align=center;verticalAlign=middle;resizable=0;points=[];autosize=1;strokeColor=none;fillColor=none;" parent="1" vertex="1">
          <mxGeometry x="298" y="-700" width="30" height="30" as="geometry" />
        </mxCell>
      </root>
    </mxGraphModel>
  </diagram>
</mxfile>
